<svg width="35" height="35" viewBox="0 0 35 35" fill="none" xmlns="http://www.w3.org/2000/svg">
<path d="M17.5 0.03125C14.045 0.03125 10.6676 1.05577 7.79489 2.97527C4.92217 4.89476 2.68316 7.623 1.36099 10.815C0.0388189 14.007 -0.307121 17.5194 0.366915 20.908C1.04095 24.2966 2.70469 27.4092 5.14774 29.8523C7.59079 32.2953 10.7034 33.9591 14.092 34.6331C17.4806 35.3071 20.993 34.9612 24.185 33.639C27.377 32.3169 30.1053 30.0778 32.0247 27.2051C33.9442 24.3324 34.9688 20.955 34.9688 17.5C34.9639 12.8685 33.1218 8.4281 29.8469 5.15313C26.5719 1.87816 22.1315 0.0361409 17.5 0.03125ZM24.0693 4.26238C24.595 10.0607 22.0352 12.7028 18.6758 15.0829C18.2979 10.9711 17.2581 6.71809 12.2308 3.69129C14.137 2.96291 16.1734 2.6376 18.2116 2.73589C20.2498 2.83419 22.2454 3.35396 24.0726 4.26238H24.0693ZM2.74899 18.4305C7.50923 15.0712 11.0752 15.9648 14.8209 17.6932C11.4531 20.0766 8.29364 23.1034 8.1811 28.9655C6.59711 27.68 5.29665 26.0801 4.36172 24.267C3.42679 22.4538 2.87767 20.4665 2.74899 18.4305ZM25.6767 29.8071C20.3941 27.3631 19.3829 23.8307 19.0067 19.7289C21.1433 20.7132 23.4259 21.5346 25.9438 21.5346C27.8469 21.5346 29.8843 21.0643 32.0965 19.8415C31.7702 21.8551 31.0315 23.7795 29.9268 25.4944C28.8221 27.2092 27.3752 28.6774 25.6767 29.8071Z" fill="url(#paint0_linear_74_55)"/>
<defs>
<linearGradient id="paint0_linear_74_55" x1="17.5" y1="0.03125" x2="17.5" y2="34.9688" gradientUnits="userSpaceOnUse">
<stop stop-color="#008FFF"/>
<stop offset="1" stop-color="#00B8D9"/>
</linearGradient>
</defs>
</svg>
