<svg width="1004" height="709" viewBox="0 0 1004 709" fill="none" xmlns="http://www.w3.org/2000/svg">
<mask id="mask0_10_1524" style="mask-type:luminance" maskUnits="userSpaceOnUse" x="0" y="0" width="502" height="355">
<path d="M501.58 0H0V354.21H501.58V0Z" fill="white"/>
</mask>
<g mask="url(#mask0_10_1524)">
<path d="M-48.61 28.1602V-28.1598L-0.00998688 -56.3198L48.59 -28.1598V28.1602L-0.00998688 56.3202L-48.61 28.1602Z" fill="#1F1F1F"/>
<path d="M4.57764e-05 -56.05L48.38 -28.02V28.03L4.57764e-05 56.06L-48.39 28.03V-28.03L4.57764e-05 -56.05ZM4.57764e-05 -56.54L-48.83 -28.25V28.29L4.57764e-05 56.54L48.83 28.25V-28.29L4.57764e-05 -56.54Z" fill="#0E0E0E"/>
<path d="M51.6901 28.1602V-28.1598L100.29 -56.3198L148.94 -28.1598V28.1602L100.29 56.3202L51.6901 28.1602Z" fill="#1F1F1F"/>
<path d="M100.29 -56.05L148.67 -28.02V28.03L100.29 56.06L51.91 28.03V-28.03L100.29 -56.05ZM100.29 -56.54L51.47 -28.29V28.29L100.29 56.58L149.12 28.29V-28.29L100.29 -56.54Z" fill="#0E0E0E"/>
<path d="M152.03 28.1602V-28.1598L200.63 -56.3198L249.23 -28.1598V28.1602L200.63 56.3202L152.03 28.1602Z" fill="#1F1F1F"/>
<path d="M200.64 -56.05L249.02 -28.02V28.03L200.64 56.06L152.26 28.03V-28.03L200.64 -56.05ZM200.64 -56.54L151.82 -28.29V28.29L200.64 56.58L249.47 28.29V-28.29L200.64 -56.54Z" fill="#0E0E0E"/>
<path d="M252.33 28.1602V-28.1598L300.93 -56.3198L349.53 -28.1598V28.1602L300.93 56.3202L252.33 28.1602Z" fill="#1F1F1F"/>
<path d="M300.94 -56.05L349.32 -28.02V28.03L300.94 56.06L252.56 28.03V-28.03L300.94 -56.05ZM300.94 -56.54L252.11 -28.29V28.29L300.94 56.58L349.76 28.29V-28.29L300.94 -56.54Z" fill="#0E0E0E"/>
<path d="M352.63 28.1602V-28.1598L401.23 -56.3198L449.88 -28.1598V28.1602L401.23 56.3202L352.63 28.1602Z" fill="#1F1F1F"/>
<path d="M401.23 -56.05L449.61 -28.02V28.03L401.23 56.06L352.85 28.03V-28.03L401.23 -56.05ZM401.23 -56.54L352.4 -28.29V28.29L401.23 56.58L450.05 28.29V-28.29L401.23 -56.54Z" fill="#0E0E0E"/>
<path d="M452.97 28.1602V-28.1598L501.57 -56.3198L550.17 -28.1598V28.1602L501.57 56.3202L452.97 28.1602Z" fill="#1F1F1F"/>
<path d="M501.58 -56.05L549.96 -28.02V28.03L501.58 56.06L453.2 28.03V-28.03L501.58 -56.05ZM501.58 -56.54L452.75 -28.25V28.29L501.58 56.58L550.41 28.29V-28.29L501.58 -56.54Z" fill="#0E0E0E"/>
<path d="M-48.61 205.26V148.94L-0.00998688 120.78L48.59 148.94V205.26L-0.00998688 233.42L-48.61 205.26Z" fill="#1F1F1F"/>
<path d="M4.57764e-05 121.05L48.38 149.08V205.13L4.57764e-05 233.16L-48.39 205.13V149.08L4.57764e-05 121.05ZM4.57764e-05 120.56L-48.83 148.86V205.4L4.57764e-05 233.65L48.83 205.36V148.82L4.57764e-05 120.56Z" fill="#0E0E0E"/>
<path d="M51.6901 205.26V148.94L100.29 120.78L148.94 148.94V205.26L100.29 233.42L51.6901 205.26Z" fill="#1F1F1F"/>
<path d="M100.29 121.05L148.67 149.08V205.13L100.29 233.16L51.91 205.13V149.08L100.29 121.05ZM100.29 120.56L51.47 148.86V205.4L100.29 233.69L149.12 205.4V148.82L100.29 120.56Z" fill="#0E0E0E"/>
<path d="M152.03 205.26V148.94L200.63 120.78L249.23 148.94V205.26L200.63 233.42L152.03 205.26Z" fill="#1F1F1F"/>
<path d="M200.64 121.05L249.02 149.08V205.13L200.64 233.16L152.26 205.13V149.08L200.64 121.05ZM200.64 120.56L151.82 148.85V205.39L200.64 233.68L249.47 205.39V148.81L200.64 120.56Z" fill="#0E0E0E"/>
<path d="M252.33 205.26V148.94L300.93 120.78L349.53 148.94V205.26L300.93 233.42L252.33 205.26Z" fill="#1F1F1F"/>
<path d="M300.94 121.05L349.32 149.08V205.13L300.94 233.16L252.56 205.13V149.08L300.94 121.05ZM300.94 120.56L252.11 148.85V205.39L300.94 233.68L349.76 205.39V148.81L300.94 120.56Z" fill="#0E0E0E"/>
<path d="M352.63 205.26V148.94L401.23 120.78L449.88 148.94V205.26L401.23 233.42L352.63 205.26Z" fill="#1F1F1F"/>
<path d="M401.23 121.05L449.61 149.08V205.13L401.23 233.16L352.85 205.13V149.08L401.23 121.05ZM401.23 120.56L352.4 148.85V205.39L401.23 233.68L450.05 205.39V148.81L401.23 120.56Z" fill="#0E0E0E"/>
<path d="M452.97 205.26V148.94L501.57 120.78L550.17 148.94V205.26L501.57 233.42L452.97 205.26Z" fill="#1F1F1F"/>
<path d="M501.58 121.05L549.96 149.08V205.13L501.58 233.16L453.2 205.13V149.08L501.58 121.05ZM501.58 120.56L452.75 148.85V205.39L501.58 233.68L550.41 205.39V148.81L501.58 120.56Z" fill="#0E0E0E"/>
<path d="M-48.61 382.37V326.05L-0.00998688 297.89L48.59 326.05V382.37L-0.00998688 410.53L-48.61 382.37Z" fill="#1F1F1F"/>
<path d="M4.57764e-05 298.15L48.38 326.18V382.23L4.57764e-05 410.26L-48.39 382.23V326.18L4.57764e-05 298.15ZM4.57764e-05 297.67L-48.83 325.96V382.5L4.57764e-05 410.75L48.82 382.46V325.92L4.57764e-05 297.67Z" fill="#0E0E0E"/>
<path d="M51.6901 382.37V326.05L100.29 297.89L148.94 326.05V382.37L100.29 410.53L51.6901 382.37Z" fill="#1F1F1F"/>
<path d="M100.29 298.15L148.67 326.18V382.23L100.29 410.26L51.91 382.23V326.18L100.29 298.15ZM100.29 297.67L51.47 325.96V382.5L100.29 410.79L149.12 382.5V325.92L100.29 297.67Z" fill="#0E0E0E"/>
<path d="M152.03 382.37V326.05L200.63 297.89L249.23 326.05V382.37L200.63 410.53L152.03 382.37Z" fill="#1F1F1F"/>
<path d="M200.64 298.15L249.02 326.18V382.23L200.64 410.26L152.26 382.23V326.18L200.64 298.15ZM200.64 297.67L151.82 325.96V382.5L200.64 410.79L249.47 382.5V325.92L200.64 297.67Z" fill="#0E0E0E"/>
<path d="M252.33 382.37V326.05L300.93 297.89L349.53 326.05V382.37L300.93 410.53L252.33 382.37Z" fill="#1F1F1F"/>
<path d="M300.94 298.15L349.32 326.18V382.23L300.94 410.26L252.56 382.23V326.18L300.94 298.15ZM300.94 297.67L252.11 325.96V382.5L300.94 410.79L349.76 382.5V325.92L300.94 297.67Z" fill="#0E0E0E"/>
<path d="M352.63 382.37V326.05L401.23 297.89L449.88 326.05V382.37L401.23 410.53L352.63 382.37Z" fill="#1F1F1F"/>
<path d="M401.23 298.15L449.61 326.18V382.23L401.23 410.26L352.85 382.23V326.18L401.23 298.15ZM401.23 297.67L352.4 325.96V382.5L401.23 410.79L450.05 382.5V325.92L401.23 297.67Z" fill="#0E0E0E"/>
<path d="M452.97 382.37V326.05L501.57 297.89L550.17 326.05V382.37L501.57 410.53L452.97 382.37Z" fill="#1F1F1F"/>
<path d="M501.58 298.15L549.96 326.18V382.23L501.58 410.26L453.2 382.23V326.18L501.58 298.15ZM501.58 297.67L452.75 325.96V382.5L501.58 410.79L550.41 382.5V325.92L501.58 297.67Z" fill="#0E0E0E"/>
<path d="M1.54004 294.26V237.94L50.14 209.78L98.7401 237.94V294.26L50.14 322.38L1.54004 294.26Z" fill="#1F1F1F"/>
<path d="M50.1401 210.05L98.5201 238.08V294.13L50.1401 322.16L1.76006 294.13V238.08L50.1401 210.05ZM50.1401 209.56L1.31006 237.81V294.35L50.1401 322.64L98.9601 294.35V237.81L50.1401 209.56Z" fill="#0E0E0E"/>
<path d="M101.84 294.26V237.94L150.49 209.78L199.09 237.94V294.26L150.49 322.38L101.84 294.26Z" fill="#1F1F1F"/>
<path d="M150.49 210.05L198.87 238.08V294.13L150.49 322.16L102.11 294.13V238.08L150.49 210.05ZM150.49 209.56L101.66 237.85V294.39L150.49 322.68L199.31 294.39V237.81L150.49 209.56Z" fill="#0E0E0E"/>
<path d="M202.18 294.26V237.94L250.78 209.78L299.38 237.94V294.26L250.78 322.38L202.18 294.26Z" fill="#1F1F1F"/>
<path d="M250.79 210.05L299.17 238.07V294.12L250.79 322.15L202.41 294.12V238.07L250.79 210.05ZM250.79 209.56L201.96 237.85V294.39L250.79 322.68L299.62 294.39V237.81L250.79 209.56Z" fill="#0E0E0E"/>
<path d="M302.48 294.26V237.94L351.08 209.78L399.68 237.94V294.26L351.08 322.38L302.48 294.26Z" fill="#1F1F1F"/>
<path d="M351.08 210.05L399.46 238.08V294.13L351.08 322.16L302.7 294.13V238.08L351.08 210.05ZM351.08 209.56L302.26 237.85V294.39L351.08 322.68L399.91 294.39V237.81L351.08 209.56Z" fill="#0E0E0E"/>
<path d="M402.78 294.26V237.94L451.43 209.78L500.03 237.94V294.26L451.43 322.38L402.78 294.26Z" fill="#1F1F1F"/>
<path d="M451.43 210.05L499.81 238.08V294.13L451.43 322.16L403.05 294.13V238.08L451.43 210.05ZM451.43 209.56L402.61 237.85V294.39L451.43 322.68L500.26 294.39V237.81L451.43 209.56Z" fill="#0E0E0E"/>
<path d="M1.54004 116.67V60.3997L50.14 32.2397L98.7401 60.3997V116.67L50.14 144.83L1.54004 116.67Z" fill="#1F1F1F"/>
<path d="M50.1401 32.4997L98.5201 60.5297V116.58L50.1401 144.61L1.76007 116.54V60.5297L50.1401 32.4997ZM50.1401 31.9697L1.32007 60.2597V116.8L50.1501 145.09L98.9701 116.8V60.2597L50.1401 31.9697Z" fill="#0E0E0E"/>
<path d="M101.84 116.67V60.3997L150.49 32.2397L199.09 60.3997V116.67L150.49 144.83L101.84 116.67Z" fill="#1F1F1F"/>
<path d="M150.49 32.4997L198.87 60.5297V116.58L150.49 144.61L102.11 116.58V60.5297L150.49 32.4997ZM150.49 31.9697L101.66 60.2597V116.8L150.49 145.09L199.31 116.8V60.2597L150.49 31.9697Z" fill="#0E0E0E"/>
<path d="M202.18 116.67V60.3997L250.78 32.2397L299.38 60.3997V116.67L250.78 144.83L202.18 116.67Z" fill="#1F1F1F"/>
<path d="M250.79 32.4997L299.17 60.5297V116.58L250.79 144.61L202.41 116.58V60.5297L250.79 32.4997ZM250.79 31.9697L201.96 60.2597V116.8L250.79 145.09L299.62 116.8V60.2597L250.79 31.9697Z" fill="#0E0E0E"/>
<path d="M302.48 116.67V60.3997L351.08 32.2397L399.68 60.3997V116.67L351.08 144.83L302.48 116.67Z" fill="#1F1F1F"/>
<path d="M351.08 32.4997L399.46 60.5297V116.58L351.08 144.61L302.7 116.58V60.5297L351.08 32.4997ZM351.08 31.9697L302.26 60.2597V116.8L351.08 145.09L399.91 116.8V60.2597L351.08 31.9697Z" fill="#0E0E0E"/>
<path d="M402.78 116.67V60.3997L451.43 32.2397L500.03 60.3997V116.67L451.43 144.83L402.78 116.67Z" fill="#1F1F1F"/>
<path d="M451.43 32.4997L499.81 60.5297V116.58L451.43 144.61L403.05 116.58V60.5297L451.43 32.4997ZM451.43 31.9697L402.61 60.2597V116.8L451.43 145.09L500.26 116.8V60.2597L451.43 31.9697Z" fill="#0E0E0E"/>
</g>
<mask id="mask1_10_1524" style="mask-type:luminance" maskUnits="userSpaceOnUse" x="501" y="0" width="503" height="355">
<path d="M1003.16 0H501.58V354.21H1003.16V0Z" fill="white"/>
</mask>
<g mask="url(#mask1_10_1524)">
<path d="M452.97 28.1602V-28.1598L501.57 -56.3198L550.17 -28.1598V28.1602L501.57 56.3202L452.97 28.1602Z" fill="#1F1F1F"/>
<path d="M501.58 -56.05L549.96 -28.02V28.03L501.58 56.06L453.2 28.03V-28.03L501.58 -56.05ZM501.58 -56.54L452.75 -28.25V28.29L501.58 56.54L550.41 28.25V-28.29L501.58 -56.54Z" fill="#0E0E0E"/>
<path d="M553.27 28.1602V-28.1598L601.87 -56.3198L650.52 -28.1598V28.1602L601.87 56.3202L553.27 28.1602Z" fill="#1F1F1F"/>
<path d="M601.88 -56.05L650.26 -28.02V28.03L601.88 56.06L553.5 28.03V-28.03L601.88 -56.05ZM601.88 -56.54L553.06 -28.29V28.29L601.88 56.58L650.71 28.29V-28.29L601.88 -56.54Z" fill="#0E0E0E"/>
<path d="M653.61 28.1602V-28.1598L702.21 -56.3198L750.81 -28.1598V28.1602L702.21 56.3202L653.61 28.1602Z" fill="#1F1F1F"/>
<path d="M702.22 -56.05L750.6 -28.02V28.03L702.22 56.06L653.84 28.03V-28.03L702.22 -56.05ZM702.22 -56.54L653.4 -28.29V28.29L702.22 56.58L751.05 28.29V-28.29L702.22 -56.54Z" fill="#0E0E0E"/>
<path d="M753.91 28.1602V-28.1598L802.51 -56.3198L851.11 -28.1598V28.1602L802.51 56.3202L753.91 28.1602Z" fill="#1F1F1F"/>
<path d="M802.52 -56.05L850.9 -28.02V28.03L802.52 56.06L754.14 28.03V-28.03L802.52 -56.05ZM802.52 -56.54L753.69 -28.29V28.29L802.52 56.58L851.34 28.29V-28.29L802.52 -56.54Z" fill="#0E0E0E"/>
<path d="M854.21 28.1602V-28.1598L902.81 -56.3198L951.46 -28.1598V28.1602L902.81 56.3202L854.21 28.1602Z" fill="#1F1F1F"/>
<path d="M902.82 -56.05L951.2 -28.02V28.03L902.82 56.06L854.44 28.03V-28.03L902.82 -56.05ZM902.82 -56.54L853.99 -28.29V28.29L902.82 56.58L951.64 28.29V-28.29L902.82 -56.54Z" fill="#0E0E0E"/>
<path d="M954.56 28.1602V-28.1598L1003.16 -56.3198L1051.76 -28.1598V28.1602L1003.16 56.3202L954.56 28.1602Z" fill="#1F1F1F"/>
<path d="M1003.16 -56.05L1051.54 -28.02V28.03L1003.16 56.06L954.78 28.03V-28.03L1003.16 -56.05ZM1003.16 -56.54L954.33 -28.25V28.29L1003.16 56.58L1051.99 28.29V-28.29L1003.16 -56.54Z" fill="#0E0E0E"/>
<path d="M452.97 205.26V148.94L501.57 120.78L550.17 148.94V205.26L501.57 233.42L452.97 205.26Z" fill="#1F1F1F"/>
<path d="M501.58 121.05L549.96 149.08V205.13L501.58 233.16L453.2 205.13V149.08L501.58 121.05ZM501.58 120.56L452.75 148.85V205.39L501.58 233.64L550.41 205.35V148.81L501.58 120.56Z" fill="#0E0E0E"/>
<path d="M553.27 205.26V148.94L601.87 120.78L650.52 148.94V205.26L601.87 233.42L553.27 205.26Z" fill="#1F1F1F"/>
<path d="M601.88 121.05L650.26 149.08V205.13L601.88 233.16L553.5 205.13V149.08L601.88 121.05ZM601.88 120.56L553.06 148.85V205.39L601.88 233.68L650.71 205.39V148.81L601.88 120.56Z" fill="#0E0E0E"/>
<path d="M653.61 205.26V148.94L702.21 120.78L750.81 148.94V205.26L702.21 233.42L653.61 205.26Z" fill="#1F1F1F"/>
<path d="M702.22 121.05L750.6 149.08V205.13L702.22 233.16L653.84 205.13V149.08L702.22 121.05ZM702.22 120.56L653.4 148.85V205.39L702.22 233.68L751.05 205.39V148.81L702.22 120.56Z" fill="#0E0E0E"/>
<path d="M753.91 205.26V148.94L802.51 120.78L851.11 148.94V205.26L802.51 233.42L753.91 205.26Z" fill="#1F1F1F"/>
<path d="M802.52 121.05L850.9 149.08V205.13L802.52 233.16L754.14 205.13V149.08L802.52 121.05ZM802.52 120.56L753.69 148.85V205.39L802.52 233.68L851.34 205.39V148.81L802.52 120.56Z" fill="#0E0E0E"/>
<path d="M854.21 205.26V148.94L902.81 120.78L951.46 148.94V205.26L902.81 233.42L854.21 205.26Z" fill="#1F1F1F"/>
<path d="M902.82 121.05L951.2 149.08V205.13L902.82 233.16L854.44 205.13V149.08L902.82 121.05ZM902.82 120.56L853.99 148.85V205.39L902.82 233.68L951.64 205.39V148.81L902.82 120.56Z" fill="#0E0E0E"/>
<path d="M954.56 205.26V148.94L1003.16 120.78L1051.76 148.94V205.26L1003.16 233.42L954.56 205.26Z" fill="#1F1F1F"/>
<path d="M1003.16 121.05L1051.54 149.08V205.13L1003.16 233.16L954.78 205.13V149.08L1003.16 121.05ZM1003.16 120.56L954.33 148.85V205.39L1003.16 233.68L1051.99 205.39V148.81L1003.16 120.56Z" fill="#0E0E0E"/>
<path d="M452.97 382.37V326.05L501.57 297.89L550.17 326.05V382.37L501.57 410.53L452.97 382.37Z" fill="#1F1F1F"/>
<path d="M501.58 298.15L549.96 326.18V382.23L501.58 410.26L453.2 382.23V326.18L501.58 298.15ZM501.58 297.67L452.75 325.96V382.5L501.58 410.75L550.4 382.46V325.92L501.58 297.67Z" fill="#0E0E0E"/>
<path d="M553.27 382.37V326.05L601.87 297.89L650.52 326.05V382.37L601.87 410.53L553.27 382.37Z" fill="#1F1F1F"/>
<path d="M601.88 298.15L650.26 326.18V382.23L601.88 410.26L553.5 382.23V326.18L601.88 298.15ZM601.88 297.67L553.06 325.96V382.5L601.88 410.79L650.71 382.5V325.92L601.88 297.67Z" fill="#0E0E0E"/>
<path d="M653.61 382.37V326.05L702.21 297.89L750.81 326.05V382.37L702.21 410.53L653.61 382.37Z" fill="#1F1F1F"/>
<path d="M702.22 298.15L750.6 326.18V382.23L702.22 410.26L653.84 382.23V326.18L702.22 298.15ZM702.22 297.67L653.4 325.96V382.5L702.22 410.79L751.05 382.5V325.92L702.22 297.67Z" fill="#0E0E0E"/>
<path d="M753.91 382.37V326.05L802.51 297.89L851.11 326.05V382.37L802.51 410.53L753.91 382.37Z" fill="#1F1F1F"/>
<path d="M802.52 298.15L850.9 326.18V382.23L802.52 410.26L754.14 382.23V326.18L802.52 298.15ZM802.52 297.67L753.69 325.96V382.5L802.52 410.79L851.34 382.5V325.92L802.52 297.67Z" fill="#0E0E0E"/>
<path d="M854.21 382.37V326.05L902.81 297.89L951.46 326.05V382.37L902.81 410.53L854.21 382.37Z" fill="#1F1F1F"/>
<path d="M902.82 298.15L951.2 326.18V382.23L902.82 410.26L854.44 382.23V326.18L902.82 298.15ZM902.82 297.67L853.99 325.96V382.5L902.82 410.79L951.64 382.5V325.92L902.82 297.67Z" fill="#0E0E0E"/>
<path d="M954.56 382.37V326.05L1003.16 297.89L1051.76 326.05V382.37L1003.16 410.53L954.56 382.37Z" fill="#1F1F1F"/>
<path d="M1003.16 298.15L1051.54 326.18V382.23L1003.16 410.26L954.78 382.23V326.18L1003.16 298.15ZM1003.16 297.67L954.33 325.96V382.5L1003.16 410.79L1051.99 382.5V325.92L1003.16 297.67Z" fill="#0E0E0E"/>
<path d="M503.12 294.26V237.94L551.72 209.78L600.32 237.94V294.26L551.72 322.38L503.12 294.26Z" fill="#1F1F1F"/>
<path d="M551.73 210.05L600.11 238.08V294.13L551.73 322.16L503.35 294.13V238.08L551.73 210.05ZM551.73 209.56L502.9 237.81V294.35L551.73 322.64L600.55 294.35V237.81L551.73 209.56Z" fill="#0E0E0E"/>
<path d="M603.42 294.26V237.94L652.07 209.78L700.67 237.94V294.26L652.07 322.38L603.42 294.26Z" fill="#1F1F1F"/>
<path d="M652.07 210.05L700.45 238.08V294.13L652.07 322.16L603.69 294.13V238.08L652.07 210.05ZM652.07 209.56L603.24 237.85V294.39L652.07 322.68L700.89 294.39V237.81L652.07 209.56Z" fill="#0E0E0E"/>
<path d="M703.76 294.26V237.94L752.36 209.78L800.96 237.94V294.26L752.36 322.38L703.76 294.26Z" fill="#1F1F1F"/>
<path d="M752.37 210.05L800.75 238.08V294.13L752.37 322.16L703.99 294.13V238.08L752.37 210.05ZM752.37 209.56L703.54 237.85V294.39L752.37 322.68L801.2 294.39V237.81L752.37 209.56Z" fill="#0E0E0E"/>
<path d="M804.06 294.26V237.94L852.66 209.78L901.26 237.94V294.26L852.66 322.38L804.06 294.26Z" fill="#1F1F1F"/>
<path d="M852.67 210.05L901.05 238.08V294.13L852.67 322.16L804.29 294.13V238.08L852.67 210.05ZM852.67 209.56L803.85 237.85V294.39L852.67 322.68L901.5 294.39V237.81L852.67 209.56Z" fill="#0E0E0E"/>
<path d="M904.36 294.26V237.94L953.01 209.78L1001.61 237.94V294.26L953.01 322.38L904.36 294.26Z" fill="#1F1F1F"/>
<path d="M953.01 210.05L1001.39 238.08V294.13L953.01 322.16L904.63 294.13V238.08L953.01 210.05ZM953.01 209.56L904.19 237.85V294.39L953.01 322.68L1001.84 294.39V237.81L953.01 209.56Z" fill="#0E0E0E"/>
<path d="M503.12 116.67V60.3997L551.72 32.2397L600.32 60.3997V116.67L551.72 144.83L503.12 116.67Z" fill="#1F1F1F"/>
<path d="M551.73 32.4997L600.11 60.5297V116.58L551.73 144.61L503.35 116.54V60.5297L551.73 32.4997ZM551.73 31.9697L502.9 60.2597V116.8L551.73 145.09L600.55 116.8V60.2597L551.73 31.9697Z" fill="#0E0E0E"/>
<path d="M603.42 116.67V60.3997L652.07 32.2397L700.67 60.3997V116.67L652.07 144.83L603.42 116.67Z" fill="#1F1F1F"/>
<path d="M652.07 32.4997L700.45 60.5297V116.58L652.07 144.61L603.69 116.58V60.5297L652.07 32.4997ZM652.07 31.9697L603.24 60.2597V116.8L652.07 145.09L700.89 116.8V60.2597L652.07 31.9697Z" fill="#0E0E0E"/>
<path d="M703.76 116.67V60.3997L752.36 32.2397L800.96 60.3997V116.67L752.36 144.83L703.76 116.67Z" fill="#1F1F1F"/>
<path d="M752.37 32.4997L800.75 60.5297V116.58L752.37 144.61L703.99 116.58V60.5297L752.37 32.4997ZM752.37 31.9697L703.54 60.2597V116.8L752.37 145.09L801.2 116.8V60.2597L752.37 31.9697Z" fill="#0E0E0E"/>
<path d="M804.06 116.67V60.3997L852.66 32.2397L901.26 60.3997V116.67L852.66 144.83L804.06 116.67Z" fill="#1F1F1F"/>
<path d="M852.67 32.4997L901.05 60.5297V116.58L852.67 144.61L804.29 116.58V60.5297L852.67 32.4997ZM852.67 31.9697L803.85 60.2597V116.8L852.67 145.09L901.5 116.8V60.2597L852.67 31.9697Z" fill="#0E0E0E"/>
<path d="M904.36 116.67V60.3997L953.01 32.2397L1001.61 60.3997V116.67L953.01 144.83L904.36 116.67Z" fill="#1F1F1F"/>
<path d="M953.01 32.4997L1001.39 60.5297V116.58L953.01 144.61L904.63 116.58V60.5297L953.01 32.4997ZM953.01 31.9697L904.19 60.2597V116.8L953.01 145.09L1001.84 116.8V60.2597L953.01 31.9697Z" fill="#0E0E0E"/>
</g>
<mask id="mask2_10_1524" style="mask-type:luminance" maskUnits="userSpaceOnUse" x="0" y="354" width="502" height="355">
<path d="M501.58 354.21H0V708.42H501.58V354.21Z" fill="white"/>
</mask>
<g mask="url(#mask2_10_1524)">
<path d="M-48.61 382.37V326.05L-0.00998688 297.89L48.59 326.05V382.37L-0.00998688 410.53L-48.61 382.37Z" fill="#1F1F1F"/>
<path d="M4.57764e-05 298.15L48.38 326.18V382.23L4.57764e-05 410.26L-48.39 382.23V326.18L4.57764e-05 298.15ZM4.57764e-05 297.67L-48.83 325.96V382.5L4.57764e-05 410.75L48.82 382.46V325.92L4.57764e-05 297.67Z" fill="#0E0E0E"/>
<path d="M51.6901 382.37V326.05L100.29 297.89L148.94 326.05V382.37L100.29 410.53L51.6901 382.37Z" fill="#1F1F1F"/>
<path d="M100.29 298.15L148.67 326.18V382.23L100.29 410.26L51.91 382.23V326.18L100.29 298.15ZM100.29 297.67L51.47 325.92V382.5L100.29 410.79L149.12 382.5V325.92L100.29 297.67Z" fill="#0E0E0E"/>
<path d="M152.03 382.37V326.05L200.63 297.89L249.23 326.05V382.37L200.63 410.53L152.03 382.37Z" fill="#1F1F1F"/>
<path d="M200.64 298.15L249.02 326.18V382.23L200.64 410.26L152.26 382.23V326.18L200.64 298.15ZM200.64 297.67L151.82 325.92V382.5L200.64 410.79L249.47 382.5V325.92L200.64 297.67Z" fill="#0E0E0E"/>
<path d="M252.33 382.37V326.05L300.93 297.89L349.53 326.05V382.37L300.93 410.53L252.33 382.37Z" fill="#1F1F1F"/>
<path d="M300.94 298.15L349.32 326.18V382.23L300.94 410.26L252.56 382.23V326.18L300.94 298.15ZM300.94 297.67L252.11 325.92V382.5L300.94 410.79L349.76 382.5V325.92L300.94 297.67Z" fill="#0E0E0E"/>
<path d="M352.63 382.37V326.05L401.23 297.89L449.88 326.05V382.37L401.23 410.53L352.63 382.37Z" fill="#1F1F1F"/>
<path d="M401.23 298.15L449.61 326.18V382.23L401.23 410.26L352.85 382.23V326.18L401.23 298.15ZM401.23 297.67L352.4 325.92V382.5L401.23 410.79L450.05 382.5V325.92L401.23 297.67Z" fill="#0E0E0E"/>
<path d="M452.97 382.37V326.05L501.57 297.89L550.17 326.05V382.37L501.57 410.53L452.97 382.37Z" fill="#1F1F1F"/>
<path d="M501.58 298.15L549.96 326.18V382.23L501.58 410.26L453.2 382.23V326.18L501.58 298.15ZM501.58 297.67L452.75 325.96V382.5L501.58 410.79L550.41 382.5V325.92L501.58 297.67Z" fill="#0E0E0E"/>
<path d="M-48.61 559.47V503.15L-0.00998688 474.99L48.59 503.15V559.47L-0.00998688 587.63L-48.61 559.47Z" fill="#1F1F1F"/>
<path d="M4.57764e-05 475.26L48.38 503.29V559.34L4.57764e-05 587.37L-48.39 559.34V503.29L4.57764e-05 475.26ZM4.57764e-05 474.77L-48.83 503.06V559.6L4.57764e-05 587.85L48.83 559.56V503.02L4.57764e-05 474.77Z" fill="#0E0E0E"/>
<path d="M51.6901 559.47V503.15L100.29 474.99L148.94 503.15V559.47L100.29 587.63L51.6901 559.47Z" fill="#1F1F1F"/>
<path d="M100.29 475.26L148.67 503.29V559.34L100.29 587.37L51.91 559.34V503.29L100.29 475.26ZM100.29 474.77L51.47 503.06V559.6L100.29 587.89L149.12 559.6V503.02L100.29 474.77Z" fill="#0E0E0E"/>
<path d="M152.03 559.47V503.15L200.63 474.99L249.23 503.15V559.47L200.63 587.63L152.03 559.47Z" fill="#1F1F1F"/>
<path d="M200.64 475.26L249.02 503.29V559.34L200.64 587.37L152.26 559.34V503.29L200.64 475.26ZM200.64 474.77L151.82 503.06V559.6L200.64 587.89L249.47 559.6V503.02L200.64 474.77Z" fill="#0E0E0E"/>
<path d="M252.33 559.47V503.15L300.93 474.99L349.53 503.15V559.47L300.93 587.63L252.33 559.47Z" fill="#1F1F1F"/>
<path d="M300.94 475.26L349.32 503.29V559.34L300.94 587.37L252.56 559.34V503.29L300.94 475.26ZM300.94 474.77L252.11 503.06V559.6L300.94 587.89L349.76 559.6V503.02L300.94 474.77Z" fill="#0E0E0E"/>
<path d="M352.63 559.47V503.15L401.23 474.99L449.88 503.15V559.47L401.23 587.63L352.63 559.47Z" fill="#1F1F1F"/>
<path d="M401.23 475.26L449.61 503.29V559.34L401.23 587.37L352.85 559.34V503.29L401.23 475.26ZM401.23 474.77L352.4 503.06V559.6L401.23 587.89L450.05 559.6V503.02L401.23 474.77Z" fill="#0E0E0E"/>
<path d="M452.97 559.47V503.15L501.57 474.99L550.17 503.15V559.47L501.57 587.63L452.97 559.47Z" fill="#1F1F1F"/>
<path d="M501.58 475.26L549.96 503.29V559.34L501.58 587.37L453.2 559.34V503.29L501.58 475.26ZM501.58 474.77L452.75 503.06V559.6L501.58 587.89L550.41 559.6V503.02L501.58 474.77Z" fill="#0E0E0E"/>
<path d="M-48.61 736.57V680.26L-0.00998688 652.1L48.59 680.26V736.58L-0.00998688 764.74L-48.61 736.57Z" fill="#1F1F1F"/>
<path d="M4.57764e-05 652.36L48.38 680.39V736.44L4.57764e-05 764.47L-48.39 736.44V680.39L4.57764e-05 652.36ZM4.57764e-05 651.88L-48.83 680.17V736.71L4.57764e-05 764.96L48.83 736.67V680.13L4.57764e-05 651.88Z" fill="#0E0E0E"/>
<path d="M51.6901 736.57V680.26L100.29 652.1L148.94 680.26V736.58L100.29 764.74L51.6901 736.57Z" fill="#1F1F1F"/>
<path d="M100.29 652.36L148.67 680.39V736.44L100.29 764.47L51.91 736.44V680.39L100.29 652.36ZM100.29 651.88L51.47 680.17V736.71L100.29 765L149.12 736.71V680.13L100.29 651.88Z" fill="#0E0E0E"/>
<path d="M152.03 736.57V680.26L200.63 652.1L249.23 680.26V736.58L200.63 764.74L152.03 736.57Z" fill="#1F1F1F"/>
<path d="M200.64 652.36L249.02 680.39V736.44L200.64 764.47L152.26 736.44V680.39L200.64 652.36ZM200.64 651.88L151.82 680.17V736.71L200.64 765L249.47 736.71V680.13L200.64 651.88Z" fill="#0E0E0E"/>
<path d="M252.33 736.57V680.26L300.93 652.1L349.53 680.26V736.58L300.93 764.74L252.33 736.57Z" fill="#1F1F1F"/>
<path d="M300.94 652.36L349.32 680.39V736.44L300.94 764.47L252.56 736.44V680.39L300.94 652.36ZM300.94 651.88L252.11 680.17V736.71L300.94 765L349.76 736.71V680.13L300.94 651.88Z" fill="#0E0E0E"/>
<path d="M352.63 736.57V680.26L401.23 652.1L449.88 680.26V736.58L401.23 764.74L352.63 736.57Z" fill="#1F1F1F"/>
<path d="M401.23 652.36L449.61 680.39V736.44L401.23 764.47L352.85 736.44V680.39L401.23 652.36ZM401.23 651.88L352.4 680.17V736.71L401.23 765L450.05 736.71V680.13L401.23 651.88Z" fill="#0E0E0E"/>
<path d="M452.97 736.57V680.26L501.57 652.1L550.17 680.26V736.58L501.57 764.74L452.97 736.57Z" fill="#1F1F1F"/>
<path d="M501.58 652.36L549.96 680.39V736.44L501.58 764.47L453.2 736.44V680.39L501.58 652.36ZM501.58 651.88L452.75 680.17V736.71L501.58 765L550.41 736.71V680.13L501.58 651.88Z" fill="#0E0E0E"/>
<path d="M1.54004 648.47V592.15L50.14 563.99L98.7401 592.15V648.47L50.14 676.59L1.54004 648.47Z" fill="#1F1F1F"/>
<path d="M50.1401 564.25L98.5201 592.28V648.33L50.1401 676.36L1.76006 648.33V592.28L50.1401 564.25ZM50.1401 563.77L1.31006 592.02V648.56L50.1401 676.85L98.9601 648.56V592.02L50.1401 563.77Z" fill="#0E0E0E"/>
<path d="M101.84 648.47V592.15L150.49 563.99L199.09 592.15V648.47L150.49 676.59L101.84 648.47Z" fill="#1F1F1F"/>
<path d="M150.49 564.25L198.87 592.28V648.33L150.49 676.36L102.11 648.33V592.28L150.49 564.25ZM150.49 563.77L101.66 592.06V648.6L150.49 676.89L199.31 648.6V592.02L150.49 563.77Z" fill="#0E0E0E"/>
<path d="M202.18 648.47V592.15L250.78 563.99L299.38 592.15V648.47L250.78 676.59L202.18 648.47Z" fill="#1F1F1F"/>
<path d="M250.79 564.25L299.17 592.28V648.33L250.79 676.36L202.41 648.33V592.28L250.79 564.25ZM250.79 563.77L201.96 592.06V648.6L250.79 676.89L299.62 648.6V592.02L250.79 563.77Z" fill="#0E0E0E"/>
<path d="M302.48 648.47V592.15L351.08 563.99L399.68 592.15V648.47L351.08 676.59L302.48 648.47Z" fill="#1F1F1F"/>
<path d="M351.08 564.25L399.46 592.28V648.33L351.08 676.36L302.7 648.33V592.28L351.08 564.25ZM351.08 563.77L302.26 592.06V648.6L351.08 676.89L399.91 648.6V592.02L351.08 563.77Z" fill="#0E0E0E"/>
<path d="M402.78 648.47V592.15L451.43 563.99L500.03 592.15V648.47L451.43 676.59L402.78 648.47Z" fill="#1F1F1F"/>
<path d="M451.43 564.25L499.81 592.28V648.33L451.43 676.36L403.05 648.33V592.28L451.43 564.25ZM451.43 563.77L402.61 592.06V648.6L451.43 676.89L500.26 648.6V592.02L451.43 563.77Z" fill="#0E0E0E"/>
<path d="M1.54004 470.88V414.61L50.14 386.45L98.7401 414.61V470.88L50.14 499.04L1.54004 470.88Z" fill="#1F1F1F"/>
<path d="M50.1401 386.71L98.5201 414.74V470.79L50.1401 498.82L1.76006 470.75V414.74L50.1401 386.71ZM50.1401 386.18L1.31006 414.47V471.01L50.1401 499.3L98.9601 471.01V414.47L50.1401 386.18Z" fill="#0E0E0E"/>
<path d="M101.84 470.88V414.61L150.49 386.45L199.09 414.61V470.88L150.49 499.04L101.84 470.88Z" fill="#1F1F1F"/>
<path d="M150.49 386.71L198.87 414.74V470.79L150.49 498.82L102.11 470.79V414.74L150.49 386.71ZM150.49 386.18L101.66 414.47V471.01L150.49 499.3L199.31 471.01V414.47L150.49 386.18Z" fill="#0E0E0E"/>
<path d="M202.18 470.88V414.61L250.78 386.45L299.38 414.61V470.88L250.78 499.04L202.18 470.88Z" fill="#1F1F1F"/>
<path d="M250.79 386.71L299.17 414.73V470.78L250.79 498.81L202.41 470.78V414.73L250.79 386.71ZM250.79 386.18L201.96 414.47V471.01L250.79 499.3L299.62 471.01V414.47L250.79 386.18Z" fill="#0E0E0E"/>
<path d="M302.48 470.88V414.61L351.08 386.45L399.68 414.61V470.88L351.08 499.04L302.48 470.88Z" fill="#1F1F1F"/>
<path d="M351.08 386.71L399.46 414.74V470.79L351.08 498.82L302.7 470.79V414.74L351.08 386.71ZM351.08 386.18L302.26 414.47V471.01L351.08 499.3L399.91 471.01V414.47L351.08 386.18Z" fill="#0E0E0E"/>
<path d="M402.78 470.88V414.61L451.43 386.45L500.03 414.61V470.88L451.43 499.04L402.78 470.88Z" fill="#1F1F1F"/>
<path d="M451.43 386.71L499.81 414.74V470.79L451.43 498.82L403.05 470.79V414.74L451.43 386.71ZM451.43 386.18L402.61 414.47V471.01L451.43 499.3L500.26 471.01V414.47L451.43 386.18Z" fill="#0E0E0E"/>
</g>
<mask id="mask3_10_1524" style="mask-type:luminance" maskUnits="userSpaceOnUse" x="501" y="354" width="503" height="355">
<path d="M1003.16 354.21H501.58V708.42H1003.16V354.21Z" fill="white"/>
</mask>
<g mask="url(#mask3_10_1524)">
<path d="M452.97 382.37V326.05L501.57 297.89L550.17 326.05V382.37L501.57 410.53L452.97 382.37Z" fill="#1F1F1F"/>
<path d="M501.58 298.15L549.96 326.18V382.23L501.58 410.26L453.2 382.23V326.18L501.58 298.15ZM501.58 297.67L452.75 325.96V382.5L501.58 410.75L550.4 382.46V325.92L501.58 297.67Z" fill="#0E0E0E"/>
<path d="M553.27 382.37V326.05L601.87 297.89L650.52 326.05V382.37L601.87 410.53L553.27 382.37Z" fill="#1F1F1F"/>
<path d="M601.88 298.15L650.26 326.18V382.23L601.88 410.26L553.5 382.23V326.18L601.88 298.15ZM601.88 297.67L553.06 325.92V382.5L601.88 410.79L650.71 382.5V325.92L601.88 297.67Z" fill="#0E0E0E"/>
<path d="M653.61 382.37V326.05L702.21 297.89L750.81 326.05V382.37L702.21 410.53L653.61 382.37Z" fill="#1F1F1F"/>
<path d="M702.22 298.15L750.6 326.18V382.23L702.22 410.26L653.84 382.23V326.18L702.22 298.15ZM702.22 297.67L653.4 325.92V382.5L702.22 410.79L751.05 382.5V325.92L702.22 297.67Z" fill="#0E0E0E"/>
<path d="M753.91 382.37V326.05L802.51 297.89L851.11 326.05V382.37L802.51 410.53L753.91 382.37Z" fill="#1F1F1F"/>
<path d="M802.52 298.15L850.9 326.18V382.23L802.52 410.26L754.14 382.23V326.18L802.52 298.15ZM802.52 297.67L753.69 325.92V382.5L802.52 410.79L851.34 382.5V325.92L802.52 297.67Z" fill="#0E0E0E"/>
<path d="M854.21 382.37V326.05L902.81 297.89L951.46 326.05V382.37L902.81 410.53L854.21 382.37Z" fill="#1F1F1F"/>
<path d="M902.82 298.15L951.2 326.18V382.23L902.82 410.26L854.44 382.23V326.18L902.82 298.15ZM902.82 297.67L853.99 325.92V382.5L902.82 410.79L951.64 382.5V325.92L902.82 297.67Z" fill="#0E0E0E"/>
<path d="M954.56 382.37V326.05L1003.16 297.89L1051.76 326.05V382.37L1003.16 410.53L954.56 382.37Z" fill="#1F1F1F"/>
<path d="M1003.16 298.15L1051.54 326.18V382.23L1003.16 410.26L954.78 382.23V326.18L1003.16 298.15ZM1003.16 297.67L954.33 325.96V382.5L1003.16 410.79L1051.99 382.5V325.92L1003.16 297.67Z" fill="#0E0E0E"/>
<path d="M452.97 559.47V503.15L501.57 474.99L550.17 503.15V559.47L501.57 587.63L452.97 559.47Z" fill="#1F1F1F"/>
<path d="M501.58 475.26L549.96 503.29V559.34L501.58 587.37L453.2 559.34V503.29L501.58 475.26ZM501.58 474.77L452.75 503.06V559.6L501.58 587.85L550.41 559.56V503.02L501.58 474.77Z" fill="#0E0E0E"/>
<path d="M553.27 559.47V503.15L601.87 474.99L650.52 503.15V559.47L601.87 587.63L553.27 559.47Z" fill="#1F1F1F"/>
<path d="M601.88 475.26L650.26 503.29V559.34L601.88 587.37L553.5 559.34V503.29L601.88 475.26ZM601.88 474.77L553.06 503.06V559.6L601.88 587.89L650.71 559.6V503.02L601.88 474.77Z" fill="#0E0E0E"/>
<path d="M653.61 559.47V503.15L702.21 474.99L750.81 503.15V559.47L702.21 587.63L653.61 559.47Z" fill="#1F1F1F"/>
<path d="M702.22 475.26L750.6 503.29V559.34L702.22 587.37L653.84 559.34V503.29L702.22 475.26ZM702.22 474.77L653.4 503.06V559.6L702.22 587.89L751.05 559.6V503.02L702.22 474.77Z" fill="#0E0E0E"/>
<path d="M753.91 559.47V503.15L802.51 474.99L851.11 503.15V559.47L802.51 587.63L753.91 559.47Z" fill="#1F1F1F"/>
<path d="M802.52 475.26L850.9 503.29V559.34L802.52 587.37L754.14 559.34V503.29L802.52 475.26ZM802.52 474.77L753.69 503.06V559.6L802.52 587.89L851.34 559.6V503.02L802.52 474.77Z" fill="#0E0E0E"/>
<path d="M854.21 559.47V503.15L902.81 474.99L951.46 503.15V559.47L902.81 587.63L854.21 559.47Z" fill="#1F1F1F"/>
<path d="M902.82 475.26L951.2 503.29V559.34L902.82 587.37L854.44 559.34V503.29L902.82 475.26ZM902.82 474.77L853.99 503.06V559.6L902.82 587.89L951.64 559.6V503.02L902.82 474.77Z" fill="#0E0E0E"/>
<path d="M954.56 559.47V503.15L1003.16 474.99L1051.76 503.15V559.47L1003.16 587.63L954.56 559.47Z" fill="#1F1F1F"/>
<path d="M1003.16 475.26L1051.54 503.29V559.34L1003.16 587.37L954.78 559.34V503.29L1003.16 475.26ZM1003.16 474.77L954.33 503.06V559.6L1003.16 587.89L1051.99 559.6V503.02L1003.16 474.77Z" fill="#0E0E0E"/>
<path d="M452.97 736.57V680.26L501.57 652.1L550.17 680.26V736.58L501.57 764.74L452.97 736.57Z" fill="#1F1F1F"/>
<path d="M501.58 652.36L549.96 680.39V736.44L501.58 764.47L453.2 736.44V680.39L501.58 652.36ZM501.58 651.88L452.75 680.17V736.71L501.58 764.96L550.41 736.67V680.13L501.58 651.88Z" fill="#0E0E0E"/>
<path d="M553.27 736.57V680.26L601.87 652.1L650.52 680.26V736.58L601.87 764.74L553.27 736.57Z" fill="#1F1F1F"/>
<path d="M601.88 652.36L650.26 680.39V736.44L601.88 764.47L553.5 736.44V680.39L601.88 652.36ZM601.88 651.88L553.06 680.17V736.71L601.88 765L650.71 736.71V680.13L601.88 651.88Z" fill="#0E0E0E"/>
<path d="M653.61 736.57V680.26L702.21 652.1L750.81 680.26V736.58L702.21 764.74L653.61 736.57Z" fill="#1F1F1F"/>
<path d="M702.22 652.36L750.6 680.39V736.44L702.22 764.47L653.84 736.44V680.39L702.22 652.36ZM702.22 651.88L653.4 680.17V736.71L702.22 765L751.05 736.71V680.13L702.22 651.88Z" fill="#0E0E0E"/>
<path d="M753.91 736.57V680.26L802.51 652.1L851.11 680.26V736.58L802.51 764.74L753.91 736.57Z" fill="#1F1F1F"/>
<path d="M802.52 652.36L850.9 680.39V736.44L802.52 764.47L754.14 736.44V680.39L802.52 652.36ZM802.52 651.88L753.69 680.17V736.71L802.52 765L851.34 736.71V680.13L802.52 651.88Z" fill="#0E0E0E"/>
<path d="M854.21 736.57V680.26L902.81 652.1L951.46 680.26V736.58L902.81 764.74L854.21 736.57Z" fill="#1F1F1F"/>
<path d="M902.82 652.36L951.2 680.39V736.44L902.82 764.47L854.44 736.44V680.39L902.82 652.36ZM902.82 651.88L853.99 680.17V736.71L902.82 765L951.64 736.71V680.13L902.82 651.88Z" fill="#0E0E0E"/>
<path d="M954.56 736.57V680.26L1003.16 652.1L1051.76 680.26V736.58L1003.16 764.74L954.56 736.57Z" fill="#1F1F1F"/>
<path d="M1003.16 652.36L1051.54 680.39V736.44L1003.16 764.47L954.78 736.44V680.39L1003.16 652.36ZM1003.16 651.88L954.33 680.17V736.71L1003.16 765L1051.99 736.71V680.13L1003.16 651.88Z" fill="#0E0E0E"/>
<path d="M503.12 648.47V592.15L551.72 563.99L600.32 592.15V648.47L551.72 676.59L503.12 648.47Z" fill="#1F1F1F"/>
<path d="M551.73 564.25L600.11 592.28V648.33L551.73 676.36L503.35 648.33V592.28L551.73 564.25ZM551.73 563.77L502.9 592.02V648.56L551.73 676.85L600.55 648.56V592.02L551.73 563.77Z" fill="#0E0E0E"/>
<path d="M603.42 648.47V592.15L652.07 563.99L700.67 592.15V648.47L652.07 676.59L603.42 648.47Z" fill="#1F1F1F"/>
<path d="M652.07 564.25L700.45 592.28V648.33L652.07 676.36L603.69 648.33V592.28L652.07 564.25ZM652.07 563.77L603.24 592.06V648.6L652.07 676.89L700.89 648.6V592.02L652.07 563.77Z" fill="#0E0E0E"/>
<path d="M703.76 648.47V592.15L752.36 563.99L800.96 592.15V648.47L752.36 676.59L703.76 648.47Z" fill="#1F1F1F"/>
<path d="M752.37 564.25L800.75 592.28V648.33L752.37 676.36L703.99 648.33V592.28L752.37 564.25ZM752.37 563.77L703.54 592.06V648.6L752.37 676.89L801.2 648.6V592.02L752.37 563.77Z" fill="#0E0E0E"/>
<path d="M804.06 648.47V592.15L852.66 563.99L901.26 592.15V648.47L852.66 676.59L804.06 648.47Z" fill="#1F1F1F"/>
<path d="M852.67 564.25L901.05 592.28V648.33L852.67 676.36L804.29 648.33V592.28L852.67 564.25ZM852.67 563.77L803.85 592.06V648.6L852.67 676.89L901.5 648.6V592.02L852.67 563.77Z" fill="#0E0E0E"/>
<path d="M904.36 648.47V592.15L953.01 563.99L1001.61 592.15V648.47L953.01 676.59L904.36 648.47Z" fill="#1F1F1F"/>
<path d="M953.01 564.25L1001.39 592.28V648.33L953.01 676.36L904.63 648.33V592.28L953.01 564.25ZM953.01 563.77L904.19 592.06V648.6L953.01 676.89L1001.84 648.6V592.02L953.01 563.77Z" fill="#0E0E0E"/>
<path d="M503.12 470.88V414.61L551.72 386.45L600.32 414.61V470.88L551.72 499.04L503.12 470.88Z" fill="#1F1F1F"/>
<path d="M551.73 386.71L600.11 414.74V470.79L551.73 498.82L503.35 470.75V414.74L551.73 386.71ZM551.73 386.18L502.9 414.47V471.01L551.73 499.3L600.55 471.01V414.47L551.73 386.18Z" fill="#0E0E0E"/>
<path d="M603.42 470.88V414.61L652.07 386.45L700.67 414.61V470.88L652.07 499.04L603.42 470.88Z" fill="#1F1F1F"/>
<path d="M652.07 386.71L700.45 414.74V470.79L652.07 498.82L603.69 470.79V414.74L652.07 386.71ZM652.07 386.18L603.24 414.47V471.01L652.07 499.3L700.89 471.01V414.47L652.07 386.18Z" fill="#0E0E0E"/>
<path d="M703.76 470.88V414.61L752.36 386.45L800.96 414.61V470.88L752.36 499.04L703.76 470.88Z" fill="#1F1F1F"/>
<path d="M752.37 386.71L800.75 414.74V470.79L752.37 498.82L703.99 470.79V414.74L752.37 386.71ZM752.37 386.18L703.54 414.47V471.01L752.37 499.3L801.2 471.01V414.47L752.37 386.18Z" fill="#0E0E0E"/>
<path d="M804.06 470.88V414.61L852.66 386.45L901.26 414.61V470.88L852.66 499.04L804.06 470.88Z" fill="#1F1F1F"/>
<path d="M852.67 386.71L901.05 414.74V470.79L852.67 498.82L804.29 470.79V414.74L852.67 386.71ZM852.67 386.18L803.85 414.47V471.01L852.67 499.3L901.5 471.01V414.47L852.67 386.18Z" fill="#0E0E0E"/>
<path d="M904.36 470.88V414.61L953.01 386.45L1001.61 414.61V470.88L953.01 499.04L904.36 470.88Z" fill="#1F1F1F"/>
<path d="M953.01 386.71L1001.39 414.74V470.79L953.01 498.82L904.63 470.79V414.74L953.01 386.71ZM953.01 386.18L904.19 414.47V471.01L953.01 499.3L1001.84 471.01V414.47L953.01 386.18Z" fill="#0E0E0E"/>
</g>
</svg>
